<svg width="1650" height="5225" viewBox="0 0 1650 5225" fill="none" xmlns="http://www.w3.org/2000/svg">
<g clip-path="url(#clip0_85_554)">
<rect width="1650" height="5225" fill="#001219"/>
<path d="M956 -41C656.167 -6.02009 93 342.018 93 1155.09C93 1968.16 344.608 2405.86 395.514 3243.3C446.421 4080.74 242 5788.23 93 6586" stroke="#002B3C"/>
<path d="M518.031 -2C323.614 445.51 394.955 762.473 279.696 1215.19C164.436 1667.9 178.714 2282.79 325.055 3031.25C471.397 3779.7 935.046 5264.75 559.533 6572" stroke="#002B3C"/>
<path d="M195 20.4184C143 76.3449 -32 320.764 -32 1070.46C-32 1820.16 307.078 2234.55 357.982 3006.72C408.885 3778.89 116.993 5342.5 -32 6078.09" stroke="#002B3C"/>
<path d="M318.739 -3C189.138 531.417 321.425 737.283 290.213 1423.15C259 2109.01 107.708 3061.61 205.261 3955.42C302.814 4849.22 564.554 5906.4 459.61 6642" stroke="#002B3C"/>
<path d="M1130.19 6604.1C937.194 6459.11 734.839 6785.35 925.839 5838.74C1116.84 4892.13 464.339 4467.51 325.839 3573.72C187.339 2679.93 349.339 900.409 900.839 12.0252" stroke="#002B3C"/>
</g>
<defs>
<clipPath id="clip0_85_554">
<rect width="1650" height="5225" fill="white"/>
</clipPath>
</defs>
</svg>
